<?xml version="1.0" encoding="UTF-8" standalone="no"?>
<!DOCTYPE svg PUBLIC "-//W3C//DTD SVG 1.1//EN"
 "http://www.w3.org/Graphics/SVG/1.1/DTD/svg11.dtd">
<!-- Generated by graphviz version 2.50.0 (20211204.2007)
 -->
<!-- Pages: 1 -->
<svg width="754pt" height="188pt"
 viewBox="0.00 0.00 754.40 188.00" xmlns="http://www.w3.org/2000/svg" xmlns:xlink="http://www.w3.org/1999/xlink">
<g id="graph0" class="graph" transform="scale(1 1) rotate(0) translate(4 184)">
<polygon fill="white" stroke="transparent" points="-4,4 -4,-184 750.4,-184 750.4,4 -4,4"/>
<!-- S1 -->
<g id="node1" class="node">
<title>S1</title>
<ellipse fill="none" stroke="black" cx="431.4" cy="-162" rx="27" ry="18"/>
<text text-anchor="middle" x="431.4" y="-158.3" font-family="Times New Roman,serif" font-size="14.00">S</text>
</g>
<!-- FOR2 -->
<g id="node2" class="node">
<title>FOR2</title>
<ellipse fill="none" stroke="black" cx="143.4" cy="-90" rx="27" ry="18"/>
<text text-anchor="middle" x="143.4" y="-86.3" font-family="Times New Roman,serif" font-size="14.00">for</text>
</g>
<!-- S1&#45;&#45;FOR2 -->
<g id="edge1" class="edge">
<title>S1&#45;&#45;FOR2</title>
<path fill="none" stroke="black" d="M405.11,-157.54C358.67,-150.98 259.49,-134.92 179.4,-108 174.29,-106.28 168.95,-104.03 163.99,-101.74"/>
</g>
<!-- OPEN_BRACKET3 -->
<g id="node3" class="node">
<title>OPEN_BRACKET3</title>
<ellipse fill="none" stroke="black" cx="215.4" cy="-90" rx="27" ry="18"/>
<text text-anchor="middle" x="215.4" y="-86.3" font-family="Times New Roman,serif" font-size="14.00">(</text>
</g>
<!-- S1&#45;&#45;OPEN_BRACKET3 -->
<g id="edge2" class="edge">
<title>S1&#45;&#45;OPEN_BRACKET3</title>
<path fill="none" stroke="black" d="M406.24,-154.91C371.07,-146.1 305.44,-128.57 251.4,-108 246.49,-106.13 241.32,-103.87 236.48,-101.62"/>
</g>
<!-- I4 -->
<g id="node4" class="node">
<title>I4</title>
<ellipse fill="none" stroke="black" cx="287.4" cy="-90" rx="27" ry="18"/>
<text text-anchor="middle" x="287.4" y="-86.3" font-family="Times New Roman,serif" font-size="14.00">I</text>
</g>
<!-- S1&#45;&#45;I4 -->
<g id="edge3" class="edge">
<title>S1&#45;&#45;I4</title>
<path fill="none" stroke="black" d="M410.15,-150.67C382.92,-137.44 336,-114.63 308.73,-101.37"/>
</g>
<!-- SEMICOLON5 -->
<g id="node9" class="node">
<title>SEMICOLON5</title>
<ellipse fill="none" stroke="black" cx="359.4" cy="-90" rx="27" ry="18"/>
<text text-anchor="middle" x="359.4" y="-86.3" font-family="Times New Roman,serif" font-size="14.00">;</text>
</g>
<!-- S1&#45;&#45;SEMICOLON5 -->
<g id="edge8" class="edge">
<title>S1&#45;&#45;SEMICOLON5</title>
<path fill="none" stroke="black" d="M416.83,-146.83C404.42,-134.77 386.66,-117.51 374.19,-105.38"/>
</g>
<!-- C6 -->
<g id="node10" class="node">
<title>C6</title>
<ellipse fill="none" stroke="black" cx="431.4" cy="-90" rx="27" ry="18"/>
<text text-anchor="middle" x="431.4" y="-86.3" font-family="Times New Roman,serif" font-size="14.00">C</text>
</g>
<!-- S1&#45;&#45;C6 -->
<g id="edge9" class="edge">
<title>S1&#45;&#45;C6</title>
<path fill="none" stroke="black" d="M431.4,-143.7C431.4,-132.85 431.4,-118.92 431.4,-108.1"/>
</g>
<!-- SEMICOLON7 -->
<g id="node14" class="node">
<title>SEMICOLON7</title>
<ellipse fill="none" stroke="black" cx="503.4" cy="-90" rx="27" ry="18"/>
<text text-anchor="middle" x="503.4" y="-86.3" font-family="Times New Roman,serif" font-size="14.00">;</text>
</g>
<!-- S1&#45;&#45;SEMICOLON7 -->
<g id="edge13" class="edge">
<title>S1&#45;&#45;SEMICOLON7</title>
<path fill="none" stroke="black" d="M445.97,-146.83C458.38,-134.77 476.13,-117.51 488.6,-105.38"/>
</g>
<!-- K8 -->
<g id="node15" class="node">
<title>K8</title>
<ellipse fill="none" stroke="black" cx="575.4" cy="-90" rx="27" ry="18"/>
<text text-anchor="middle" x="575.4" y="-86.3" font-family="Times New Roman,serif" font-size="14.00">K</text>
</g>
<!-- S1&#45;&#45;K8 -->
<g id="edge14" class="edge">
<title>S1&#45;&#45;K8</title>
<path fill="none" stroke="black" d="M452.64,-150.67C479.87,-137.44 526.79,-114.63 554.06,-101.37"/>
</g>
<!-- CLOSE_BRACKET9 -->
<g id="node18" class="node">
<title>CLOSE_BRACKET9</title>
<ellipse fill="none" stroke="black" cx="647.4" cy="-90" rx="27" ry="18"/>
<text text-anchor="middle" x="647.4" y="-86.3" font-family="Times New Roman,serif" font-size="14.00">)</text>
</g>
<!-- S1&#45;&#45;CLOSE_BRACKET9 -->
<g id="edge17" class="edge">
<title>S1&#45;&#45;CLOSE_BRACKET9</title>
<path fill="none" stroke="black" d="M456.55,-154.91C491.72,-146.1 557.36,-128.57 611.4,-108 616.3,-106.13 621.47,-103.87 626.31,-101.62"/>
</g>
<!-- END10 -->
<g id="node19" class="node">
<title>END10</title>
<ellipse fill="none" stroke="black" cx="719.4" cy="-90" rx="27" ry="18"/>
<text text-anchor="middle" x="719.4" y="-86.3" font-family="Times New Roman,serif" font-size="14.00">$</text>
</g>
<!-- S1&#45;&#45;END10 -->
<g id="edge18" class="edge">
<title>S1&#45;&#45;END10</title>
<path fill="none" stroke="black" d="M457.69,-157.54C504.12,-150.98 603.3,-134.92 683.4,-108 688.51,-106.28 693.84,-104.03 698.8,-101.74"/>
</g>
<!-- WORD5 -->
<g id="node5" class="node">
<title>WORD5</title>
<ellipse fill="none" stroke="black" cx="49.4" cy="-18" rx="49.29" ry="18"/>
<text text-anchor="middle" x="49.4" y="-14.3" font-family="Times New Roman,serif" font-size="14.00">someType</text>
</g>
<!-- I4&#45;&#45;WORD5 -->
<g id="edge4" class="edge">
<title>I4&#45;&#45;WORD5</title>
<path fill="none" stroke="black" d="M266.37,-78.23C261.52,-75.98 256.34,-73.77 251.4,-72 189.27,-49.81 171.06,-53.28 107.4,-36 100.61,-34.16 93.4,-32.12 86.46,-30.1"/>
</g>
<!-- WORD6 -->
<g id="node6" class="node">
<title>WORD6</title>
<ellipse fill="none" stroke="black" cx="143.4" cy="-18" rx="27" ry="18"/>
<text text-anchor="middle" x="143.4" y="-14.3" font-family="Times New Roman,serif" font-size="14.00">a</text>
</g>
<!-- I4&#45;&#45;WORD6 -->
<g id="edge5" class="edge">
<title>I4&#45;&#45;WORD6</title>
<path fill="none" stroke="black" d="M266.15,-78.67C238.92,-65.44 192,-42.63 164.73,-29.37"/>
</g>
<!-- ASSIGN7 -->
<g id="node7" class="node">
<title>ASSIGN7</title>
<ellipse fill="none" stroke="black" cx="215.4" cy="-18" rx="27" ry="18"/>
<text text-anchor="middle" x="215.4" y="-14.3" font-family="Times New Roman,serif" font-size="14.00">=</text>
</g>
<!-- I4&#45;&#45;ASSIGN7 -->
<g id="edge6" class="edge">
<title>I4&#45;&#45;ASSIGN7</title>
<path fill="none" stroke="black" d="M272.83,-74.83C260.42,-62.77 242.66,-45.51 230.19,-33.38"/>
</g>
<!-- NUMBER8 -->
<g id="node8" class="node">
<title>NUMBER8</title>
<ellipse fill="none" stroke="black" cx="287.4" cy="-18" rx="27" ry="18"/>
<text text-anchor="middle" x="287.4" y="-14.3" font-family="Times New Roman,serif" font-size="14.00">228</text>
</g>
<!-- I4&#45;&#45;NUMBER8 -->
<g id="edge7" class="edge">
<title>I4&#45;&#45;NUMBER8</title>
<path fill="none" stroke="black" d="M287.4,-71.7C287.4,-60.85 287.4,-46.92 287.4,-36.1"/>
</g>
<!-- WORD7 -->
<g id="node11" class="node">
<title>WORD7</title>
<ellipse fill="none" stroke="black" cx="359.4" cy="-18" rx="27" ry="18"/>
<text text-anchor="middle" x="359.4" y="-14.3" font-family="Times New Roman,serif" font-size="14.00">b</text>
</g>
<!-- C6&#45;&#45;WORD7 -->
<g id="edge10" class="edge">
<title>C6&#45;&#45;WORD7</title>
<path fill="none" stroke="black" d="M416.83,-74.83C404.42,-62.77 386.66,-45.51 374.19,-33.38"/>
</g>
<!-- LESS_EQUALS8 -->
<g id="node12" class="node">
<title>LESS_EQUALS8</title>
<ellipse fill="none" stroke="black" cx="431.4" cy="-18" rx="27" ry="18"/>
<text text-anchor="middle" x="431.4" y="-14.3" font-family="Times New Roman,serif" font-size="14.00">&lt;=</text>
</g>
<!-- C6&#45;&#45;LESS_EQUALS8 -->
<g id="edge11" class="edge">
<title>C6&#45;&#45;LESS_EQUALS8</title>
<path fill="none" stroke="black" d="M431.4,-71.7C431.4,-60.85 431.4,-46.92 431.4,-36.1"/>
</g>
<!-- NUMBER9 -->
<g id="node13" class="node">
<title>NUMBER9</title>
<ellipse fill="none" stroke="black" cx="503.4" cy="-18" rx="27" ry="18"/>
<text text-anchor="middle" x="503.4" y="-14.3" font-family="Times New Roman,serif" font-size="14.00">123</text>
</g>
<!-- C6&#45;&#45;NUMBER9 -->
<g id="edge12" class="edge">
<title>C6&#45;&#45;NUMBER9</title>
<path fill="none" stroke="black" d="M445.97,-74.83C458.38,-62.77 476.13,-45.51 488.6,-33.38"/>
</g>
<!-- WORD9 -->
<g id="node16" class="node">
<title>WORD9</title>
<ellipse fill="none" stroke="black" cx="586.4" cy="-18" rx="38.19" ry="18"/>
<text text-anchor="middle" x="586.4" y="-14.3" font-family="Times New Roman,serif" font-size="14.00">variable</text>
</g>
<!-- K8&#45;&#45;WORD9 -->
<g id="edge15" class="edge">
<title>K8&#45;&#45;WORD9</title>
<path fill="none" stroke="black" d="M578.06,-72.05C579.76,-61.21 581.97,-47.18 583.68,-36.28"/>
</g>
<!-- INCREMENT10 -->
<g id="node17" class="node">
<title>INCREMENT10</title>
<ellipse fill="none" stroke="black" cx="669.4" cy="-18" rx="27" ry="18"/>
<text text-anchor="middle" x="669.4" y="-14.3" font-family="Times New Roman,serif" font-size="14.00">++</text>
</g>
<!-- K8&#45;&#45;INCREMENT10 -->
<g id="edge16" class="edge">
<title>K8&#45;&#45;INCREMENT10</title>
<path fill="none" stroke="black" d="M593.08,-75.83C609.99,-63.24 635.33,-44.37 652.11,-31.87"/>
</g>
</g>
</svg>
