<?xml version="1.0" encoding="UTF-8" standalone="no"?>
<!DOCTYPE svg PUBLIC "-//W3C//DTD SVG 1.1//EN"
 "http://www.w3.org/Graphics/SVG/1.1/DTD/svg11.dtd">
<!-- Generated by graphviz version 2.50.0 (20211204.2007)
 -->
<!-- Pages: 1 -->
<svg width="837pt" height="188pt"
 viewBox="0.00 0.00 837.44 188.00" xmlns="http://www.w3.org/2000/svg" xmlns:xlink="http://www.w3.org/1999/xlink">
<g id="graph0" class="graph" transform="scale(1 1) rotate(0) translate(4 184)">
<polygon fill="white" stroke="transparent" points="-4,4 -4,-184 833.44,-184 833.44,4 -4,4"/>
<!-- S1 -->
<g id="node1" class="node">
<title>S1</title>
<ellipse fill="none" stroke="black" cx="514.44" cy="-162" rx="27" ry="18"/>
<text text-anchor="middle" x="514.44" y="-158.3" font-family="Times New Roman,serif" font-size="14.00">S</text>
</g>
<!-- FOR2 -->
<g id="node2" class="node">
<title>FOR2</title>
<ellipse fill="none" stroke="black" cx="225.44" cy="-90" rx="27" ry="18"/>
<text text-anchor="middle" x="225.44" y="-86.3" font-family="Times New Roman,serif" font-size="14.00">for</text>
</g>
<!-- S1&#45;&#45;FOR2 -->
<g id="edge1" class="edge">
<title>S1&#45;&#45;FOR2</title>
<path fill="none" stroke="black" d="M488.05,-157.56C441.43,-151.02 341.85,-134.99 261.44,-108 256.33,-106.28 251,-104.04 246.04,-101.74"/>
</g>
<!-- OPEN_BRACKET3 -->
<g id="node3" class="node">
<title>OPEN_BRACKET3</title>
<ellipse fill="none" stroke="black" cx="297.44" cy="-90" rx="27" ry="18"/>
<text text-anchor="middle" x="297.44" y="-86.3" font-family="Times New Roman,serif" font-size="14.00">(</text>
</g>
<!-- S1&#45;&#45;OPEN_BRACKET3 -->
<g id="edge2" class="edge">
<title>S1&#45;&#45;OPEN_BRACKET3</title>
<path fill="none" stroke="black" d="M489.45,-155C454.15,-146.23 387.93,-128.7 333.44,-108 328.53,-106.13 323.37,-103.88 318.53,-101.63"/>
</g>
<!-- I4 -->
<g id="node4" class="node">
<title>I4</title>
<ellipse fill="none" stroke="black" cx="369.44" cy="-90" rx="27" ry="18"/>
<text text-anchor="middle" x="369.44" y="-86.3" font-family="Times New Roman,serif" font-size="14.00">I</text>
</g>
<!-- S1&#45;&#45;I4 -->
<g id="edge3" class="edge">
<title>S1&#45;&#45;I4</title>
<path fill="none" stroke="black" d="M493.05,-150.67C465.63,-137.44 418.38,-114.63 390.93,-101.37"/>
</g>
<!-- SEMICOLON5 -->
<g id="node9" class="node">
<title>SEMICOLON5</title>
<ellipse fill="none" stroke="black" cx="442.44" cy="-90" rx="27" ry="18"/>
<text text-anchor="middle" x="442.44" y="-86.3" font-family="Times New Roman,serif" font-size="14.00">;</text>
</g>
<!-- S1&#45;&#45;SEMICOLON5 -->
<g id="edge8" class="edge">
<title>S1&#45;&#45;SEMICOLON5</title>
<path fill="none" stroke="black" d="M499.87,-146.83C487.46,-134.77 469.71,-117.51 457.24,-105.38"/>
</g>
<!-- C6 -->
<g id="node10" class="node">
<title>C6</title>
<ellipse fill="none" stroke="black" cx="514.44" cy="-90" rx="27" ry="18"/>
<text text-anchor="middle" x="514.44" y="-86.3" font-family="Times New Roman,serif" font-size="14.00">C</text>
</g>
<!-- S1&#45;&#45;C6 -->
<g id="edge9" class="edge">
<title>S1&#45;&#45;C6</title>
<path fill="none" stroke="black" d="M514.44,-143.7C514.44,-132.85 514.44,-118.92 514.44,-108.1"/>
</g>
<!-- SEMICOLON7 -->
<g id="node14" class="node">
<title>SEMICOLON7</title>
<ellipse fill="none" stroke="black" cx="586.44" cy="-90" rx="27" ry="18"/>
<text text-anchor="middle" x="586.44" y="-86.3" font-family="Times New Roman,serif" font-size="14.00">;</text>
</g>
<!-- S1&#45;&#45;SEMICOLON7 -->
<g id="edge13" class="edge">
<title>S1&#45;&#45;SEMICOLON7</title>
<path fill="none" stroke="black" d="M529.01,-146.83C541.42,-134.77 559.18,-117.51 571.65,-105.38"/>
</g>
<!-- K8 -->
<g id="node15" class="node">
<title>K8</title>
<ellipse fill="none" stroke="black" cx="658.44" cy="-90" rx="27" ry="18"/>
<text text-anchor="middle" x="658.44" y="-86.3" font-family="Times New Roman,serif" font-size="14.00">K</text>
</g>
<!-- S1&#45;&#45;K8 -->
<g id="edge14" class="edge">
<title>S1&#45;&#45;K8</title>
<path fill="none" stroke="black" d="M535.69,-150.67C562.92,-137.44 609.84,-114.63 637.11,-101.37"/>
</g>
<!-- CLOSE_BRACKET9 -->
<g id="node18" class="node">
<title>CLOSE_BRACKET9</title>
<ellipse fill="none" stroke="black" cx="730.44" cy="-90" rx="27" ry="18"/>
<text text-anchor="middle" x="730.44" y="-86.3" font-family="Times New Roman,serif" font-size="14.00">)</text>
</g>
<!-- S1&#45;&#45;CLOSE_BRACKET9 -->
<g id="edge17" class="edge">
<title>S1&#45;&#45;CLOSE_BRACKET9</title>
<path fill="none" stroke="black" d="M539.6,-154.91C574.77,-146.1 640.41,-128.57 694.44,-108 699.35,-106.13 704.52,-103.87 709.36,-101.62"/>
</g>
<!-- END10 -->
<g id="node19" class="node">
<title>END10</title>
<ellipse fill="none" stroke="black" cx="802.44" cy="-90" rx="27" ry="18"/>
<text text-anchor="middle" x="802.44" y="-86.3" font-family="Times New Roman,serif" font-size="14.00">$</text>
</g>
<!-- S1&#45;&#45;END10 -->
<g id="edge18" class="edge">
<title>S1&#45;&#45;END10</title>
<path fill="none" stroke="black" d="M540.73,-157.54C587.17,-150.98 686.35,-134.92 766.44,-108 771.55,-106.28 776.89,-104.03 781.85,-101.74"/>
</g>
<!-- WORD5 -->
<g id="node5" class="node">
<title>WORD5</title>
<ellipse fill="none" stroke="black" cx="60.44" cy="-18" rx="60.39" ry="18"/>
<text text-anchor="middle" x="60.44" y="-14.3" font-family="Times New Roman,serif" font-size="14.00">typeName228</text>
</g>
<!-- I4&#45;&#45;WORD5 -->
<g id="edge4" class="edge">
<title>I4&#45;&#45;WORD5</title>
<path fill="none" stroke="black" d="M348.89,-78.14C343.93,-75.85 338.58,-73.63 333.44,-72 245.71,-44.1 219.53,-55.02 129.44,-36 121.36,-34.29 112.78,-32.31 104.51,-30.32"/>
</g>
<!-- WORD6 -->
<g id="node6" class="node">
<title>WORD6</title>
<ellipse fill="none" stroke="black" cx="194.44" cy="-18" rx="55.79" ry="18"/>
<text text-anchor="middle" x="194.44" y="-14.3" font-family="Times New Roman,serif" font-size="14.00">varName123</text>
</g>
<!-- I4&#45;&#45;WORD6 -->
<g id="edge5" class="edge">
<title>I4&#45;&#45;WORD6</title>
<path fill="none" stroke="black" d="M348.25,-78.66C343.41,-76.39 338.28,-74.06 333.44,-72 298.87,-57.27 258.7,-42.16 230.46,-31.87"/>
</g>
<!-- ASSIGN7 -->
<g id="node7" class="node">
<title>ASSIGN7</title>
<ellipse fill="none" stroke="black" cx="295.44" cy="-18" rx="27" ry="18"/>
<text text-anchor="middle" x="295.44" y="-14.3" font-family="Times New Roman,serif" font-size="14.00">=</text>
</g>
<!-- I4&#45;&#45;ASSIGN7 -->
<g id="edge6" class="edge">
<title>I4&#45;&#45;ASSIGN7</title>
<path fill="none" stroke="black" d="M354.47,-74.83C341.63,-62.69 323.23,-45.28 310.4,-33.14"/>
</g>
<!-- NUMBER8 -->
<g id="node8" class="node">
<title>NUMBER8</title>
<ellipse fill="none" stroke="black" cx="369.44" cy="-18" rx="28.7" ry="18"/>
<text text-anchor="middle" x="369.44" y="-14.3" font-family="Times New Roman,serif" font-size="14.00">1234</text>
</g>
<!-- I4&#45;&#45;NUMBER8 -->
<g id="edge7" class="edge">
<title>I4&#45;&#45;NUMBER8</title>
<path fill="none" stroke="black" d="M369.44,-71.7C369.44,-60.85 369.44,-46.92 369.44,-36.1"/>
</g>
<!-- WORD7 -->
<g id="node11" class="node">
<title>WORD7</title>
<ellipse fill="none" stroke="black" cx="443.44" cy="-18" rx="27" ry="18"/>
<text text-anchor="middle" x="443.44" y="-14.3" font-family="Times New Roman,serif" font-size="14.00">kek</text>
</g>
<!-- C6&#45;&#45;WORD7 -->
<g id="edge10" class="edge">
<title>C6&#45;&#45;WORD7</title>
<path fill="none" stroke="black" d="M499.73,-74.5C487.55,-62.48 470.32,-45.49 458.14,-33.49"/>
</g>
<!-- NOT_EQUALS8 -->
<g id="node12" class="node">
<title>NOT_EQUALS8</title>
<ellipse fill="none" stroke="black" cx="515.44" cy="-18" rx="27" ry="18"/>
<text text-anchor="middle" x="515.44" y="-14.3" font-family="Times New Roman,serif" font-size="14.00">!=</text>
</g>
<!-- C6&#45;&#45;NOT_EQUALS8 -->
<g id="edge11" class="edge">
<title>C6&#45;&#45;NOT_EQUALS8</title>
<path fill="none" stroke="black" d="M514.69,-71.7C514.85,-60.85 515.05,-46.92 515.2,-36.1"/>
</g>
<!-- NUMBER9 -->
<g id="node13" class="node">
<title>NUMBER9</title>
<ellipse fill="none" stroke="black" cx="587.44" cy="-18" rx="27" ry="18"/>
<text text-anchor="middle" x="587.44" y="-14.3" font-family="Times New Roman,serif" font-size="14.00">0</text>
</g>
<!-- C6&#45;&#45;NUMBER9 -->
<g id="edge12" class="edge">
<title>C6&#45;&#45;NUMBER9</title>
<path fill="none" stroke="black" d="M529.22,-74.83C541.88,-62.69 560.04,-45.28 572.69,-33.14"/>
</g>
<!-- WORD9 -->
<g id="node16" class="node">
<title>WORD9</title>
<ellipse fill="none" stroke="black" cx="659.44" cy="-18" rx="27" ry="18"/>
<text text-anchor="middle" x="659.44" y="-14.3" font-family="Times New Roman,serif" font-size="14.00">lol</text>
</g>
<!-- K8&#45;&#45;WORD9 -->
<g id="edge15" class="edge">
<title>K8&#45;&#45;WORD9</title>
<path fill="none" stroke="black" d="M658.69,-71.7C658.85,-60.85 659.05,-46.92 659.2,-36.1"/>
</g>
<!-- INCREMENT10 -->
<g id="node17" class="node">
<title>INCREMENT10</title>
<ellipse fill="none" stroke="black" cx="731.44" cy="-18" rx="27" ry="18"/>
<text text-anchor="middle" x="731.44" y="-14.3" font-family="Times New Roman,serif" font-size="14.00">&#45;&#45;</text>
</g>
<!-- K8&#45;&#45;INCREMENT10 -->
<g id="edge16" class="edge">
<title>K8&#45;&#45;INCREMENT10</title>
<path fill="none" stroke="black" d="M673.22,-74.83C685.88,-62.69 704.04,-45.28 716.69,-33.14"/>
</g>
</g>
</svg>
