<?xml version="1.0" encoding="UTF-8" standalone="no"?>
<!DOCTYPE svg PUBLIC "-//W3C//DTD SVG 1.1//EN"
 "http://www.w3.org/Graphics/SVG/1.1/DTD/svg11.dtd">
<!-- Generated by graphviz version 2.50.0 (20211204.2007)
 -->
<!-- Pages: 1 -->
<svg width="710pt" height="188pt"
 viewBox="0.00 0.00 710.00 188.00" xmlns="http://www.w3.org/2000/svg" xmlns:xlink="http://www.w3.org/1999/xlink">
<g id="graph0" class="graph" transform="scale(1 1) rotate(0) translate(4 184)">
<polygon fill="white" stroke="transparent" points="-4,4 -4,-184 706,-184 706,4 -4,4"/>
<!-- S1 -->
<g id="node1" class="node">
<title>S1</title>
<ellipse fill="none" stroke="black" cx="387" cy="-162" rx="27" ry="18"/>
<text text-anchor="middle" x="387" y="-158.3" font-family="Times New Roman,serif" font-size="14.00">S</text>
</g>
<!-- FOR2 -->
<g id="node2" class="node">
<title>FOR2</title>
<ellipse fill="none" stroke="black" cx="99" cy="-90" rx="27" ry="18"/>
<text text-anchor="middle" x="99" y="-86.3" font-family="Times New Roman,serif" font-size="14.00">for</text>
</g>
<!-- S1&#45;&#45;FOR2 -->
<g id="edge1" class="edge">
<title>S1&#45;&#45;FOR2</title>
<path fill="none" stroke="black" d="M360.71,-157.54C314.28,-150.98 215.09,-134.92 135,-108 129.89,-106.28 124.55,-104.03 119.6,-101.74"/>
</g>
<!-- OPEN_BRACKET3 -->
<g id="node3" class="node">
<title>OPEN_BRACKET3</title>
<ellipse fill="none" stroke="black" cx="171" cy="-90" rx="27" ry="18"/>
<text text-anchor="middle" x="171" y="-86.3" font-family="Times New Roman,serif" font-size="14.00">(</text>
</g>
<!-- S1&#45;&#45;OPEN_BRACKET3 -->
<g id="edge2" class="edge">
<title>S1&#45;&#45;OPEN_BRACKET3</title>
<path fill="none" stroke="black" d="M361.85,-154.91C326.68,-146.1 261.04,-128.57 207,-108 202.09,-106.13 196.92,-103.87 192.08,-101.62"/>
</g>
<!-- I4 -->
<g id="node4" class="node">
<title>I4</title>
<ellipse fill="none" stroke="black" cx="243" cy="-90" rx="27" ry="18"/>
<text text-anchor="middle" x="243" y="-86.3" font-family="Times New Roman,serif" font-size="14.00">I</text>
</g>
<!-- S1&#45;&#45;I4 -->
<g id="edge3" class="edge">
<title>S1&#45;&#45;I4</title>
<path fill="none" stroke="black" d="M365.75,-150.67C338.53,-137.44 291.6,-114.63 264.33,-101.37"/>
</g>
<!-- SEMICOLON5 -->
<g id="node9" class="node">
<title>SEMICOLON5</title>
<ellipse fill="none" stroke="black" cx="315" cy="-90" rx="27" ry="18"/>
<text text-anchor="middle" x="315" y="-86.3" font-family="Times New Roman,serif" font-size="14.00">;</text>
</g>
<!-- S1&#45;&#45;SEMICOLON5 -->
<g id="edge8" class="edge">
<title>S1&#45;&#45;SEMICOLON5</title>
<path fill="none" stroke="black" d="M372.43,-146.83C360.02,-134.77 342.27,-117.51 329.8,-105.38"/>
</g>
<!-- C6 -->
<g id="node10" class="node">
<title>C6</title>
<ellipse fill="none" stroke="black" cx="387" cy="-90" rx="27" ry="18"/>
<text text-anchor="middle" x="387" y="-86.3" font-family="Times New Roman,serif" font-size="14.00">C</text>
</g>
<!-- S1&#45;&#45;C6 -->
<g id="edge9" class="edge">
<title>S1&#45;&#45;C6</title>
<path fill="none" stroke="black" d="M387,-143.7C387,-132.85 387,-118.92 387,-108.1"/>
</g>
<!-- SEMICOLON7 -->
<g id="node14" class="node">
<title>SEMICOLON7</title>
<ellipse fill="none" stroke="black" cx="459" cy="-90" rx="27" ry="18"/>
<text text-anchor="middle" x="459" y="-86.3" font-family="Times New Roman,serif" font-size="14.00">;</text>
</g>
<!-- S1&#45;&#45;SEMICOLON7 -->
<g id="edge13" class="edge">
<title>S1&#45;&#45;SEMICOLON7</title>
<path fill="none" stroke="black" d="M401.57,-146.83C413.98,-134.77 431.73,-117.51 444.2,-105.38"/>
</g>
<!-- K8 -->
<g id="node15" class="node">
<title>K8</title>
<ellipse fill="none" stroke="black" cx="531" cy="-90" rx="27" ry="18"/>
<text text-anchor="middle" x="531" y="-86.3" font-family="Times New Roman,serif" font-size="14.00">K</text>
</g>
<!-- S1&#45;&#45;K8 -->
<g id="edge14" class="edge">
<title>S1&#45;&#45;K8</title>
<path fill="none" stroke="black" d="M408.25,-150.67C435.47,-137.44 482.4,-114.63 509.67,-101.37"/>
</g>
<!-- CLOSE_BRACKET9 -->
<g id="node18" class="node">
<title>CLOSE_BRACKET9</title>
<ellipse fill="none" stroke="black" cx="603" cy="-90" rx="27" ry="18"/>
<text text-anchor="middle" x="603" y="-86.3" font-family="Times New Roman,serif" font-size="14.00">)</text>
</g>
<!-- S1&#45;&#45;CLOSE_BRACKET9 -->
<g id="edge17" class="edge">
<title>S1&#45;&#45;CLOSE_BRACKET9</title>
<path fill="none" stroke="black" d="M412.15,-154.91C447.32,-146.1 512.96,-128.57 567,-108 571.91,-106.13 577.08,-103.87 581.92,-101.62"/>
</g>
<!-- END10 -->
<g id="node19" class="node">
<title>END10</title>
<ellipse fill="none" stroke="black" cx="675" cy="-90" rx="27" ry="18"/>
<text text-anchor="middle" x="675" y="-86.3" font-family="Times New Roman,serif" font-size="14.00">$</text>
</g>
<!-- S1&#45;&#45;END10 -->
<g id="edge18" class="edge">
<title>S1&#45;&#45;END10</title>
<path fill="none" stroke="black" d="M413.29,-157.54C459.72,-150.98 558.91,-134.92 639,-108 644.11,-106.28 649.45,-104.03 654.4,-101.74"/>
</g>
<!-- WORD5 -->
<g id="node5" class="node">
<title>WORD5</title>
<ellipse fill="none" stroke="black" cx="27" cy="-18" rx="27" ry="18"/>
<text text-anchor="middle" x="27" y="-14.3" font-family="Times New Roman,serif" font-size="14.00">int</text>
</g>
<!-- I4&#45;&#45;WORD5 -->
<g id="edge4" class="edge">
<title>I4&#45;&#45;WORD5</title>
<path fill="none" stroke="black" d="M221.97,-78.23C217.13,-75.98 211.95,-73.77 207,-72 144.87,-49.81 125.13,-58.19 63,-36 58.05,-34.23 52.87,-32.02 48.03,-29.77"/>
</g>
<!-- WORD6 -->
<g id="node6" class="node">
<title>WORD6</title>
<ellipse fill="none" stroke="black" cx="99" cy="-18" rx="27" ry="18"/>
<text text-anchor="middle" x="99" y="-14.3" font-family="Times New Roman,serif" font-size="14.00">a</text>
</g>
<!-- I4&#45;&#45;WORD6 -->
<g id="edge5" class="edge">
<title>I4&#45;&#45;WORD6</title>
<path fill="none" stroke="black" d="M221.75,-78.67C194.53,-65.44 147.6,-42.63 120.33,-29.37"/>
</g>
<!-- ASSIGN7 -->
<g id="node7" class="node">
<title>ASSIGN7</title>
<ellipse fill="none" stroke="black" cx="171" cy="-18" rx="27" ry="18"/>
<text text-anchor="middle" x="171" y="-14.3" font-family="Times New Roman,serif" font-size="14.00">=</text>
</g>
<!-- I4&#45;&#45;ASSIGN7 -->
<g id="edge6" class="edge">
<title>I4&#45;&#45;ASSIGN7</title>
<path fill="none" stroke="black" d="M228.43,-74.83C216.02,-62.77 198.27,-45.51 185.8,-33.38"/>
</g>
<!-- NUMBER8 -->
<g id="node8" class="node">
<title>NUMBER8</title>
<ellipse fill="none" stroke="black" cx="243" cy="-18" rx="27" ry="18"/>
<text text-anchor="middle" x="243" y="-14.3" font-family="Times New Roman,serif" font-size="14.00">228</text>
</g>
<!-- I4&#45;&#45;NUMBER8 -->
<g id="edge7" class="edge">
<title>I4&#45;&#45;NUMBER8</title>
<path fill="none" stroke="black" d="M243,-71.7C243,-60.85 243,-46.92 243,-36.1"/>
</g>
<!-- WORD7 -->
<g id="node11" class="node">
<title>WORD7</title>
<ellipse fill="none" stroke="black" cx="315" cy="-18" rx="27" ry="18"/>
<text text-anchor="middle" x="315" y="-14.3" font-family="Times New Roman,serif" font-size="14.00">a</text>
</g>
<!-- C6&#45;&#45;WORD7 -->
<g id="edge10" class="edge">
<title>C6&#45;&#45;WORD7</title>
<path fill="none" stroke="black" d="M372.43,-74.83C360.02,-62.77 342.27,-45.51 329.8,-33.38"/>
</g>
<!-- LESS8 -->
<g id="node12" class="node">
<title>LESS8</title>
<ellipse fill="none" stroke="black" cx="387" cy="-18" rx="27" ry="18"/>
<text text-anchor="middle" x="387" y="-14.3" font-family="Times New Roman,serif" font-size="14.00">&lt;</text>
</g>
<!-- C6&#45;&#45;LESS8 -->
<g id="edge11" class="edge">
<title>C6&#45;&#45;LESS8</title>
<path fill="none" stroke="black" d="M387,-71.7C387,-60.85 387,-46.92 387,-36.1"/>
</g>
<!-- NUMBER9 -->
<g id="node13" class="node">
<title>NUMBER9</title>
<ellipse fill="none" stroke="black" cx="461" cy="-18" rx="28.7" ry="18"/>
<text text-anchor="middle" x="461" y="-14.3" font-family="Times New Roman,serif" font-size="14.00">1509</text>
</g>
<!-- C6&#45;&#45;NUMBER9 -->
<g id="edge12" class="edge">
<title>C6&#45;&#45;NUMBER9</title>
<path fill="none" stroke="black" d="M401.98,-74.83C414.73,-62.77 432.97,-45.51 445.79,-33.38"/>
</g>
<!-- WORD9 -->
<g id="node16" class="node">
<title>WORD9</title>
<ellipse fill="none" stroke="black" cx="535" cy="-18" rx="27" ry="18"/>
<text text-anchor="middle" x="535" y="-14.3" font-family="Times New Roman,serif" font-size="14.00">a</text>
</g>
<!-- K8&#45;&#45;WORD9 -->
<g id="edge15" class="edge">
<title>K8&#45;&#45;WORD9</title>
<path fill="none" stroke="black" d="M531.99,-71.7C532.61,-60.85 533.4,-46.92 534.02,-36.1"/>
</g>
<!-- INCREMENT10 -->
<g id="node17" class="node">
<title>INCREMENT10</title>
<ellipse fill="none" stroke="black" cx="607" cy="-18" rx="27" ry="18"/>
<text text-anchor="middle" x="607" y="-14.3" font-family="Times New Roman,serif" font-size="14.00">++</text>
</g>
<!-- K8&#45;&#45;INCREMENT10 -->
<g id="edge16" class="edge">
<title>K8&#45;&#45;INCREMENT10</title>
<path fill="none" stroke="black" d="M546.38,-74.83C559.57,-62.69 578.46,-45.28 591.64,-33.14"/>
</g>
</g>
</svg>
